<mxfile host="app.diagrams.net" modified="2022-03-30T10:02:44.535Z" agent="5.0 (Windows NT 10.0; Win64; x64) AppleWebKit/537.36 (KHTML, like Gecko) Chrome/99.0.4844.84 Safari/537.36" etag="uobdomcFrnitQHrD8rIB" version="17.1.3" type="github">
  <diagram id="yoy33NktIotqnmnQdP1O" name="Page-1">
    <mxGraphModel dx="2418" dy="934" grid="1" gridSize="10" guides="1" tooltips="1" connect="1" arrows="1" fold="1" page="1" pageScale="1" pageWidth="827" pageHeight="1169" math="0" shadow="0">
      <root>
        <mxCell id="0" />
        <mxCell id="1" parent="0" />
        <mxCell id="KJ7FVQ0bmsooo6kBNzId-1" value="gestionale" style="shape=cylinder3;whiteSpace=wrap;html=1;boundedLbl=1;backgroundOutline=1;size=15;" vertex="1" parent="1">
          <mxGeometry x="370" y="70" width="60" height="120" as="geometry" />
        </mxCell>
        <mxCell id="KJ7FVQ0bmsooo6kBNzId-2" value="clienti" style="swimlane;fontStyle=0;childLayout=stackLayout;horizontal=1;startSize=30;horizontalStack=0;resizeParent=1;resizeParentMax=0;resizeLast=0;collapsible=1;marginBottom=0;" vertex="1" parent="1">
          <mxGeometry x="110" y="180" width="140" height="120" as="geometry" />
        </mxCell>
        <mxCell id="KJ7FVQ0bmsooo6kBNzId-3" value="id cliente" style="text;strokeColor=none;fillColor=none;align=left;verticalAlign=middle;spacingLeft=4;spacingRight=4;overflow=hidden;points=[[0,0.5],[1,0.5]];portConstraint=eastwest;rotatable=0;" vertex="1" parent="KJ7FVQ0bmsooo6kBNzId-2">
          <mxGeometry y="30" width="140" height="30" as="geometry" />
        </mxCell>
        <mxCell id="KJ7FVQ0bmsooo6kBNzId-4" value="nome" style="text;strokeColor=none;fillColor=none;align=left;verticalAlign=middle;spacingLeft=4;spacingRight=4;overflow=hidden;points=[[0,0.5],[1,0.5]];portConstraint=eastwest;rotatable=0;" vertex="1" parent="KJ7FVQ0bmsooo6kBNzId-2">
          <mxGeometry y="60" width="140" height="30" as="geometry" />
        </mxCell>
        <mxCell id="KJ7FVQ0bmsooo6kBNzId-5" value="cognome" style="text;strokeColor=none;fillColor=none;align=left;verticalAlign=middle;spacingLeft=4;spacingRight=4;overflow=hidden;points=[[0,0.5],[1,0.5]];portConstraint=eastwest;rotatable=0;" vertex="1" parent="KJ7FVQ0bmsooo6kBNzId-2">
          <mxGeometry y="90" width="140" height="30" as="geometry" />
        </mxCell>
        <mxCell id="KJ7FVQ0bmsooo6kBNzId-6" value="articoli" style="swimlane;fontStyle=0;childLayout=stackLayout;horizontal=1;startSize=30;horizontalStack=0;resizeParent=1;resizeParentMax=0;resizeLast=0;collapsible=1;marginBottom=0;" vertex="1" parent="1">
          <mxGeometry x="610" width="140" height="120" as="geometry" />
        </mxCell>
        <mxCell id="KJ7FVQ0bmsooo6kBNzId-7" value="id articolo" style="text;strokeColor=none;fillColor=none;align=left;verticalAlign=middle;spacingLeft=4;spacingRight=4;overflow=hidden;points=[[0,0.5],[1,0.5]];portConstraint=eastwest;rotatable=0;" vertex="1" parent="KJ7FVQ0bmsooo6kBNzId-6">
          <mxGeometry y="30" width="140" height="30" as="geometry" />
        </mxCell>
        <mxCell id="KJ7FVQ0bmsooo6kBNzId-8" value="descrizione" style="text;strokeColor=none;fillColor=none;align=left;verticalAlign=middle;spacingLeft=4;spacingRight=4;overflow=hidden;points=[[0,0.5],[1,0.5]];portConstraint=eastwest;rotatable=0;" vertex="1" parent="KJ7FVQ0bmsooo6kBNzId-6">
          <mxGeometry y="60" width="140" height="30" as="geometry" />
        </mxCell>
        <mxCell id="KJ7FVQ0bmsooo6kBNzId-9" value="categoria" style="text;strokeColor=none;fillColor=none;align=left;verticalAlign=middle;spacingLeft=4;spacingRight=4;overflow=hidden;points=[[0,0.5],[1,0.5]];portConstraint=eastwest;rotatable=0;" vertex="1" parent="KJ7FVQ0bmsooo6kBNzId-6">
          <mxGeometry y="90" width="140" height="30" as="geometry" />
        </mxCell>
        <mxCell id="KJ7FVQ0bmsooo6kBNzId-10" value="dipendenti" style="swimlane;fontStyle=0;childLayout=stackLayout;horizontal=1;startSize=30;horizontalStack=0;resizeParent=1;resizeParentMax=0;resizeLast=0;collapsible=1;marginBottom=0;" vertex="1" parent="1">
          <mxGeometry x="110" y="420" width="140" height="120" as="geometry" />
        </mxCell>
        <mxCell id="KJ7FVQ0bmsooo6kBNzId-11" value="id dipendente" style="text;strokeColor=none;fillColor=none;align=left;verticalAlign=middle;spacingLeft=4;spacingRight=4;overflow=hidden;points=[[0,0.5],[1,0.5]];portConstraint=eastwest;rotatable=0;" vertex="1" parent="KJ7FVQ0bmsooo6kBNzId-10">
          <mxGeometry y="30" width="140" height="30" as="geometry" />
        </mxCell>
        <mxCell id="KJ7FVQ0bmsooo6kBNzId-12" value="nome" style="text;strokeColor=none;fillColor=none;align=left;verticalAlign=middle;spacingLeft=4;spacingRight=4;overflow=hidden;points=[[0,0.5],[1,0.5]];portConstraint=eastwest;rotatable=0;" vertex="1" parent="KJ7FVQ0bmsooo6kBNzId-10">
          <mxGeometry y="60" width="140" height="30" as="geometry" />
        </mxCell>
        <mxCell id="KJ7FVQ0bmsooo6kBNzId-13" value="cognome" style="text;strokeColor=none;fillColor=none;align=left;verticalAlign=middle;spacingLeft=4;spacingRight=4;overflow=hidden;points=[[0,0.5],[1,0.5]];portConstraint=eastwest;rotatable=0;" vertex="1" parent="KJ7FVQ0bmsooo6kBNzId-10">
          <mxGeometry y="90" width="140" height="30" as="geometry" />
        </mxCell>
        <mxCell id="KJ7FVQ0bmsooo6kBNzId-14" value="ordini" style="swimlane;fontStyle=0;childLayout=stackLayout;horizontal=1;startSize=30;horizontalStack=0;resizeParent=1;resizeParentMax=0;resizeLast=0;collapsible=1;marginBottom=0;" vertex="1" parent="1">
          <mxGeometry x="600" y="530" width="140" height="160" as="geometry" />
        </mxCell>
        <mxCell id="KJ7FVQ0bmsooo6kBNzId-15" value="data" style="text;strokeColor=none;fillColor=none;align=left;verticalAlign=middle;spacingLeft=4;spacingRight=4;overflow=hidden;points=[[0,0.5],[1,0.5]];portConstraint=eastwest;rotatable=0;" vertex="1" parent="KJ7FVQ0bmsooo6kBNzId-14">
          <mxGeometry y="30" width="140" height="30" as="geometry" />
        </mxCell>
        <mxCell id="KJ7FVQ0bmsooo6kBNzId-16" value="id cliente fk" style="text;strokeColor=none;fillColor=none;align=left;verticalAlign=middle;spacingLeft=4;spacingRight=4;overflow=hidden;points=[[0,0.5],[1,0.5]];portConstraint=eastwest;rotatable=0;" vertex="1" parent="KJ7FVQ0bmsooo6kBNzId-14">
          <mxGeometry y="60" width="140" height="30" as="geometry" />
        </mxCell>
        <mxCell id="KJ7FVQ0bmsooo6kBNzId-17" value="id dipendente fk" style="text;strokeColor=none;fillColor=none;align=left;verticalAlign=middle;spacingLeft=4;spacingRight=4;overflow=hidden;points=[[0,0.5],[1,0.5]];portConstraint=eastwest;rotatable=0;" vertex="1" parent="KJ7FVQ0bmsooo6kBNzId-14">
          <mxGeometry y="90" width="140" height="30" as="geometry" />
        </mxCell>
        <mxCell id="KJ7FVQ0bmsooo6kBNzId-18" value="stato ordine enum&lt;br&gt;" style="rounded=0;whiteSpace=wrap;html=1;" vertex="1" parent="KJ7FVQ0bmsooo6kBNzId-14">
          <mxGeometry y="120" width="140" height="40" as="geometry" />
        </mxCell>
        <mxCell id="KJ7FVQ0bmsooo6kBNzId-27" style="edgeStyle=orthogonalEdgeStyle;rounded=0;orthogonalLoop=1;jettySize=auto;html=1;entryX=0.021;entryY=-0.1;entryDx=0;entryDy=0;entryPerimeter=0;fontSize=20;" edge="1" parent="1" source="KJ7FVQ0bmsooo6kBNzId-5" target="KJ7FVQ0bmsooo6kBNzId-17">
          <mxGeometry relative="1" as="geometry" />
        </mxCell>
        <mxCell id="KJ7FVQ0bmsooo6kBNzId-28" value="1-n" style="edgeLabel;html=1;align=center;verticalAlign=middle;resizable=0;points=[];fontSize=20;" vertex="1" connectable="0" parent="KJ7FVQ0bmsooo6kBNzId-27">
          <mxGeometry x="0.5665" y="1" relative="1" as="geometry">
            <mxPoint as="offset" />
          </mxGeometry>
        </mxCell>
        <mxCell id="KJ7FVQ0bmsooo6kBNzId-29" style="edgeStyle=orthogonalEdgeStyle;rounded=0;orthogonalLoop=1;jettySize=auto;html=1;entryX=0.629;entryY=0.006;entryDx=0;entryDy=0;entryPerimeter=0;fontSize=20;" edge="1" parent="1" source="KJ7FVQ0bmsooo6kBNzId-9" target="KJ7FVQ0bmsooo6kBNzId-14">
          <mxGeometry relative="1" as="geometry">
            <Array as="points">
              <mxPoint x="590" y="105" />
              <mxPoint x="590" y="325" />
              <mxPoint x="550" y="325" />
              <mxPoint x="550" y="531" />
            </Array>
          </mxGeometry>
        </mxCell>
        <mxCell id="KJ7FVQ0bmsooo6kBNzId-30" value="n-n" style="edgeLabel;html=1;align=center;verticalAlign=middle;resizable=0;points=[];fontSize=20;" vertex="1" connectable="0" parent="KJ7FVQ0bmsooo6kBNzId-29">
          <mxGeometry x="-0.3019" y="-1" relative="1" as="geometry">
            <mxPoint as="offset" />
          </mxGeometry>
        </mxCell>
        <mxCell id="KJ7FVQ0bmsooo6kBNzId-31" style="edgeStyle=orthogonalEdgeStyle;rounded=0;orthogonalLoop=1;jettySize=auto;html=1;entryX=0.007;entryY=0.65;entryDx=0;entryDy=0;entryPerimeter=0;fontSize=20;" edge="1" parent="1" source="KJ7FVQ0bmsooo6kBNzId-13" target="KJ7FVQ0bmsooo6kBNzId-18">
          <mxGeometry relative="1" as="geometry" />
        </mxCell>
        <mxCell id="KJ7FVQ0bmsooo6kBNzId-32" value="1-n" style="edgeLabel;html=1;align=center;verticalAlign=middle;resizable=0;points=[];fontSize=20;" vertex="1" connectable="0" parent="KJ7FVQ0bmsooo6kBNzId-31">
          <mxGeometry x="0.4631" relative="1" as="geometry">
            <mxPoint as="offset" />
          </mxGeometry>
        </mxCell>
        <mxCell id="KJ7FVQ0bmsooo6kBNzId-37" value="1-n" style="edgeStyle=orthogonalEdgeStyle;rounded=0;orthogonalLoop=1;jettySize=auto;html=1;entryX=0.5;entryY=1;entryDx=0;entryDy=0;entryPerimeter=0;fontSize=20;" edge="1" parent="1" source="KJ7FVQ0bmsooo6kBNzId-33" target="KJ7FVQ0bmsooo6kBNzId-13">
          <mxGeometry relative="1" as="geometry" />
        </mxCell>
        <mxCell id="KJ7FVQ0bmsooo6kBNzId-33" value="uffici" style="swimlane;fontStyle=0;childLayout=stackLayout;horizontal=1;startSize=30;horizontalStack=0;resizeParent=1;resizeParentMax=0;resizeLast=0;collapsible=1;marginBottom=0;fontSize=20;" vertex="1" parent="1">
          <mxGeometry x="100" y="620" width="140" height="60" as="geometry" />
        </mxCell>
        <mxCell id="KJ7FVQ0bmsooo6kBNzId-34" value="id ufficio" style="text;strokeColor=none;fillColor=none;align=left;verticalAlign=middle;spacingLeft=4;spacingRight=4;overflow=hidden;points=[[0,0.5],[1,0.5]];portConstraint=eastwest;rotatable=0;fontSize=20;" vertex="1" parent="KJ7FVQ0bmsooo6kBNzId-33">
          <mxGeometry y="30" width="140" height="30" as="geometry" />
        </mxCell>
        <mxCell id="KJ7FVQ0bmsooo6kBNzId-42" value="crediiti" style="rounded=0;whiteSpace=wrap;html=1;fontSize=20;" vertex="1" parent="1">
          <mxGeometry x="120" y="300" width="120" height="30" as="geometry" />
        </mxCell>
        <mxCell id="KJ7FVQ0bmsooo6kBNzId-43" value="id ordine" style="rounded=0;whiteSpace=wrap;html=1;fontSize=20;" vertex="1" parent="1">
          <mxGeometry x="600" y="690" width="140" height="60" as="geometry" />
        </mxCell>
        <mxCell id="KJ7FVQ0bmsooo6kBNzId-45" value="disponibilità" style="rounded=0;whiteSpace=wrap;html=1;fontSize=20;" vertex="1" parent="1">
          <mxGeometry x="620" y="120" width="120" height="25" as="geometry" />
        </mxCell>
        <mxCell id="KJ7FVQ0bmsooo6kBNzId-46" value="prezzo" style="rounded=0;whiteSpace=wrap;html=1;fontSize=20;" vertex="1" parent="1">
          <mxGeometry x="620" y="145" width="120" height="30" as="geometry" />
        </mxCell>
        <mxCell id="KJ7FVQ0bmsooo6kBNzId-48" value="id ufficio fk" style="rounded=0;whiteSpace=wrap;html=1;fontSize=20;" vertex="1" parent="1">
          <mxGeometry x="-10" y="490" width="120" height="30" as="geometry" />
        </mxCell>
        <mxCell id="KJ7FVQ0bmsooo6kBNzId-72" value="ordine_articolo" style="shape=table;startSize=30;container=1;collapsible=1;childLayout=tableLayout;fixedRows=1;rowLines=0;fontStyle=1;align=center;resizeLast=1;fontSize=20;" vertex="1" parent="1">
          <mxGeometry x="640" y="250" width="180" height="190" as="geometry" />
        </mxCell>
        <mxCell id="KJ7FVQ0bmsooo6kBNzId-73" value="" style="shape=tableRow;horizontal=0;startSize=0;swimlaneHead=0;swimlaneBody=0;fillColor=none;collapsible=0;dropTarget=0;points=[[0,0.5],[1,0.5]];portConstraint=eastwest;top=0;left=0;right=0;bottom=1;fontSize=20;" vertex="1" parent="KJ7FVQ0bmsooo6kBNzId-72">
          <mxGeometry y="30" width="180" height="30" as="geometry" />
        </mxCell>
        <mxCell id="KJ7FVQ0bmsooo6kBNzId-74" value="" style="shape=partialRectangle;connectable=0;fillColor=none;top=0;left=0;bottom=0;right=0;fontStyle=1;overflow=hidden;fontSize=20;" vertex="1" parent="KJ7FVQ0bmsooo6kBNzId-73">
          <mxGeometry width="30" height="30" as="geometry">
            <mxRectangle width="30" height="30" as="alternateBounds" />
          </mxGeometry>
        </mxCell>
        <mxCell id="KJ7FVQ0bmsooo6kBNzId-75" value="" style="shape=partialRectangle;connectable=0;fillColor=none;top=0;left=0;bottom=0;right=0;align=left;spacingLeft=6;fontStyle=5;overflow=hidden;fontSize=20;" vertex="1" parent="KJ7FVQ0bmsooo6kBNzId-73">
          <mxGeometry x="30" width="150" height="30" as="geometry">
            <mxRectangle width="150" height="30" as="alternateBounds" />
          </mxGeometry>
        </mxCell>
        <mxCell id="KJ7FVQ0bmsooo6kBNzId-76" value="" style="shape=tableRow;horizontal=0;startSize=0;swimlaneHead=0;swimlaneBody=0;fillColor=none;collapsible=0;dropTarget=0;points=[[0,0.5],[1,0.5]];portConstraint=eastwest;top=0;left=0;right=0;bottom=0;fontSize=20;" vertex="1" parent="KJ7FVQ0bmsooo6kBNzId-72">
          <mxGeometry y="60" width="180" height="30" as="geometry" />
        </mxCell>
        <mxCell id="KJ7FVQ0bmsooo6kBNzId-77" value="" style="shape=partialRectangle;connectable=0;fillColor=none;top=0;left=0;bottom=0;right=0;editable=1;overflow=hidden;fontSize=20;" vertex="1" parent="KJ7FVQ0bmsooo6kBNzId-76">
          <mxGeometry width="30" height="30" as="geometry">
            <mxRectangle width="30" height="30" as="alternateBounds" />
          </mxGeometry>
        </mxCell>
        <mxCell id="KJ7FVQ0bmsooo6kBNzId-78" value="id articolo fk" style="shape=partialRectangle;connectable=0;fillColor=none;top=0;left=0;bottom=0;right=0;align=left;spacingLeft=6;overflow=hidden;fontSize=20;" vertex="1" parent="KJ7FVQ0bmsooo6kBNzId-76">
          <mxGeometry x="30" width="150" height="30" as="geometry">
            <mxRectangle width="150" height="30" as="alternateBounds" />
          </mxGeometry>
        </mxCell>
        <mxCell id="KJ7FVQ0bmsooo6kBNzId-79" value="" style="shape=tableRow;horizontal=0;startSize=0;swimlaneHead=0;swimlaneBody=0;fillColor=none;collapsible=0;dropTarget=0;points=[[0,0.5],[1,0.5]];portConstraint=eastwest;top=0;left=0;right=0;bottom=0;fontSize=20;" vertex="1" parent="KJ7FVQ0bmsooo6kBNzId-72">
          <mxGeometry y="90" width="180" height="30" as="geometry" />
        </mxCell>
        <mxCell id="KJ7FVQ0bmsooo6kBNzId-80" value="" style="shape=partialRectangle;connectable=0;fillColor=none;top=0;left=0;bottom=0;right=0;editable=1;overflow=hidden;fontSize=20;" vertex="1" parent="KJ7FVQ0bmsooo6kBNzId-79">
          <mxGeometry width="30" height="30" as="geometry">
            <mxRectangle width="30" height="30" as="alternateBounds" />
          </mxGeometry>
        </mxCell>
        <mxCell id="KJ7FVQ0bmsooo6kBNzId-81" value="id ordine fk" style="shape=partialRectangle;connectable=0;fillColor=none;top=0;left=0;bottom=0;right=0;align=left;spacingLeft=6;overflow=hidden;fontSize=20;" vertex="1" parent="KJ7FVQ0bmsooo6kBNzId-79">
          <mxGeometry x="30" width="150" height="30" as="geometry">
            <mxRectangle width="150" height="30" as="alternateBounds" />
          </mxGeometry>
        </mxCell>
        <mxCell id="KJ7FVQ0bmsooo6kBNzId-82" value="" style="shape=tableRow;horizontal=0;startSize=0;swimlaneHead=0;swimlaneBody=0;fillColor=none;collapsible=0;dropTarget=0;points=[[0,0.5],[1,0.5]];portConstraint=eastwest;top=0;left=0;right=0;bottom=0;fontSize=20;" vertex="1" parent="KJ7FVQ0bmsooo6kBNzId-72">
          <mxGeometry y="120" width="180" height="30" as="geometry" />
        </mxCell>
        <mxCell id="KJ7FVQ0bmsooo6kBNzId-83" value="" style="shape=partialRectangle;connectable=0;fillColor=none;top=0;left=0;bottom=0;right=0;editable=1;overflow=hidden;fontSize=20;" vertex="1" parent="KJ7FVQ0bmsooo6kBNzId-82">
          <mxGeometry width="30" height="30" as="geometry">
            <mxRectangle width="30" height="30" as="alternateBounds" />
          </mxGeometry>
        </mxCell>
        <mxCell id="KJ7FVQ0bmsooo6kBNzId-84" value="quantita * quel&#39;ordine" style="shape=partialRectangle;connectable=0;fillColor=none;top=0;left=0;bottom=0;right=0;align=left;spacingLeft=6;overflow=hidden;fontSize=20;" vertex="1" parent="KJ7FVQ0bmsooo6kBNzId-82">
          <mxGeometry x="30" width="150" height="30" as="geometry">
            <mxRectangle width="150" height="30" as="alternateBounds" />
          </mxGeometry>
        </mxCell>
        <mxCell id="KJ7FVQ0bmsooo6kBNzId-113" value="tel" style="rounded=0;whiteSpace=wrap;html=1;fontSize=20;" vertex="1" parent="1">
          <mxGeometry x="120" y="330" width="120" height="20" as="geometry" />
        </mxCell>
        <mxCell id="KJ7FVQ0bmsooo6kBNzId-114" value="email" style="rounded=0;whiteSpace=wrap;html=1;fontSize=20;" vertex="1" parent="1">
          <mxGeometry x="120" y="350" width="120" height="30" as="geometry" />
        </mxCell>
        <mxCell id="KJ7FVQ0bmsooo6kBNzId-116" value="ruolo" style="rounded=0;whiteSpace=wrap;html=1;fontSize=20;" vertex="1" parent="1">
          <mxGeometry x="-10" y="460" width="120" height="30" as="geometry" />
        </mxCell>
        <mxCell id="KJ7FVQ0bmsooo6kBNzId-117" value="stipendio" style="rounded=0;whiteSpace=wrap;html=1;fontSize=20;" vertex="1" parent="1">
          <mxGeometry x="-10" y="430" width="120" height="30" as="geometry" />
        </mxCell>
        <mxCell id="KJ7FVQ0bmsooo6kBNzId-118" value="nome" style="rounded=0;whiteSpace=wrap;html=1;fontSize=20;" vertex="1" parent="1">
          <mxGeometry x="100" y="680" width="120" height="60" as="geometry" />
        </mxCell>
        <mxCell id="KJ7FVQ0bmsooo6kBNzId-119" style="edgeStyle=orthogonalEdgeStyle;rounded=0;orthogonalLoop=1;jettySize=auto;html=1;fontSize=20;" edge="1" parent="1" source="KJ7FVQ0bmsooo6kBNzId-118" target="KJ7FVQ0bmsooo6kBNzId-118">
          <mxGeometry relative="1" as="geometry" />
        </mxCell>
        <mxCell id="KJ7FVQ0bmsooo6kBNzId-120" style="edgeStyle=orthogonalEdgeStyle;rounded=0;orthogonalLoop=1;jettySize=auto;html=1;exitX=0.5;exitY=1;exitDx=0;exitDy=0;fontSize=20;" edge="1" parent="1" source="KJ7FVQ0bmsooo6kBNzId-118" target="KJ7FVQ0bmsooo6kBNzId-118">
          <mxGeometry relative="1" as="geometry" />
        </mxCell>
      </root>
    </mxGraphModel>
  </diagram>
</mxfile>
